<?xml version="1.0" encoding="utf-8"?>
<!-- Generator: Adobe Illustrator 21.0.2, SVG Export Plug-In . SVG Version: 6.00 Build 0)  -->
<svg version="1.1" id="Слой_1" xmlns="http://www.w3.org/2000/svg" xmlns:xlink="http://www.w3.org/1999/xlink" x="0px" y="0px"
	 viewBox="0 0 79.8 67.2" style="enable-background:new 0 0 79.8 67.2;" xml:space="preserve">
<style type="text/css">
	.st0{fill:#333333;}
</style>
<g>
	<path class="st0" d="M25.2,57.6c-1.2-2-1.5-4.4-0.9-6.7l2.4-9c-5.4-3.6-13.1-5.7-14.9-10.3C7,19.5,22.6,18.3,25,25.9
		c-1.1-4.9,4-9.3,8.4-8.8l2.7-10c0.6-2.2,1.9-4,3.7-5.1c-1.5-1.6-3.8-2.4-6.1-1.7L4.6,8c-3.3,0.9-5.3,4.3-4.4,7.6L12,59.5
		c0.9,3.3,4.3,5.3,7.6,4.4l9.7-2.6C27.6,60.5,26.2,59.3,25.2,57.6z"/>
	<path class="st0" d="M75.2,11.1l-29-7.8c-3.3-0.9-6.7,1.1-7.6,4.4L26.8,51.6c-0.9,3.3,1.1,6.7,4.4,7.6l29,7.8
		c3.3,0.9,6.7-1.1,7.6-4.4l11.8-43.9C80.5,15.4,78.5,12,75.2,11.1z M67,38.7c-1.6,11.4-13.8,6.6-14.4-0.1v0.1
		c0.2,4.9,5.2,9.4,5.2,9.4s-3.5-2.9-7.1-3.8c-3.5-0.9-8-0.2-8-0.2s6.6-1.4,9.3-5.6v-0.1c-3.8,5.5-16.7,3.6-12.5-7.1
		c2.1-5.3,13.4-7,18-12.2C58.9,26,67.8,33.1,67,38.7z"/>
</g>
</svg>
