<?xml version="1.0" encoding="utf-8"?>
<!-- Generator: Adobe Illustrator 21.0.2, SVG Export Plug-In . SVG Version: 6.00 Build 0)  -->
<svg version="1.1" id="Слой_1" xmlns="http://www.w3.org/2000/svg" xmlns:xlink="http://www.w3.org/1999/xlink" x="0px" y="0px"
	 viewBox="0 0 896.3 1664" style="enable-background:new 0 0 896.3 1664;" xml:space="preserve">
<path d="M885.1,438c-10-10-21.3-15-34-15c-2.7,0-6.7,0.7-12,2l-396,98l171-463c3.3-6.7,5-12.7,5-18c0-11.3-4.3-21.2-13-29.5
	S586.8,0,574.1,0h-328c-10.7,0-20,3-28,9s-13.3,13.7-16,23L1.1,857c-3.3,16,1,29,13,39c8.7,7.3,19,11,31,11c5.3,0,9.3-0.3,12-1
	l406-101l-197,808c-2.7,10.7-1.2,20.7,4.5,30s14.2,15.7,25.5,19c6.7,1.3,11.3,2,14,2c19.3,0,33.3-8.3,42-25l540-1157
	C899.4,466,897.1,451.3,885.1,438z"/>
</svg>
