<?xml version="1.0" encoding="utf-8"?>
<!-- Generator: Adobe Illustrator 21.0.2, SVG Export Plug-In . SVG Version: 6.00 Build 0)  -->
<svg version="1.1" id="Слой_1" xmlns="http://www.w3.org/2000/svg" xmlns:xlink="http://www.w3.org/1999/xlink" x="0px" y="0px"
	 viewBox="0 0 72.7 72.7" style="enable-background:new 0 0 72.7 72.7;" xml:space="preserve">
<style type="text/css">
	.st0{fill:#333333;}
</style>
<path class="st0" d="M70.3,43.1c0.5-2.3,2.4-4.3,2.4-6.7c0-2.4-2-4.5-2.4-6.8c-0.5-2.3,0.5-4.9-0.4-7.1c-0.9-2.2-3.5-3.4-4.8-5.3
	c-1.3-2-1.4-4.8-3.1-6.5s-4.5-1.8-6.5-3.1c-2-1.3-3.1-3.9-5.3-4.8C48,1.9,45.3,2.9,43,2.4C40.8,1.9,38.7,0,36.4,0
	c-2.4,0-4.5,2-6.8,2.4c-2.3,0.5-4.9-0.5-7.1,0.4c-2.2,0.9-3.4,3.5-5.3,4.8c-2,1.3-4.8,1.4-6.5,3.1s-1.8,4.5-3.1,6.5
	c-1.3,2-3.9,3.1-4.8,5.3c-0.9,2.2,0.1,4.9-0.4,7.2S0,34,0,36.4c0,2.4,2,4.5,2.4,6.8c0.5,2.3-0.5,4.9,0.4,7.1
	c0.9,2.2,3.5,3.4,4.8,5.3c1.3,2,1.4,4.8,3.1,6.5c1.7,1.7,4.5,1.8,6.5,3.1s3.1,3.9,5.3,4.8c2.2,0.9,4.9-0.1,7.2,0.4s4.3,2.4,6.7,2.4
	c2.4,0,4.5-2,6.8-2.4c2.3-0.5,4.9,0.5,7.1-0.4c2.2-0.9,3.4-3.5,5.3-4.8c2-1.3,4.8-1.4,6.5-3.1c1.7-1.7,1.8-4.5,3.1-6.5
	s3.9-3.1,4.8-5.3C70.8,48.1,69.8,45.4,70.3,43.1z M12.1,23.5c0-1.1,0.9-2,2-2h44.5c1.1,0,2,0.9,2,2v0.2c0,1.1-0.9,2-2,2H14.1
	c-1.1,0-2-0.9-2-2V23.5z M58.2,30.4L54.6,43c-0.2,0.7-0.9,1.2-1.6,1.2c-0.1,0-0.3,0-0.5-0.1c-0.7-0.2-1.1-0.7-1.2-1.4l-1.9-7.1
	l-1.9,7.1c-0.1,0.6-0.6,1.2-1.2,1.4c-0.1,0-0.3,0.1-0.5,0.1c-0.8,0-1.4-0.5-1.6-1.2l-3.5-12.7c-0.3-0.9,0.3-1.9,1.2-2.1
	c0.9-0.3,1.8,0.3,2.1,1.2l2.1,7.4l1.9-7.3c0.2-0.7,0.8-1.1,1.5-1.1s1.3,0.5,1.5,1.1l1.9,7.3l2.1-7.4c0.3-0.9,1.2-1.4,2.1-1.2
	C57.9,28.5,58.4,29.4,58.2,30.4z M37.6,34.7c0.8,0,1.5,0.7,1.5,1.5s-0.7,1.5-1.5,1.5h-3.7v3.1h3.7c0.9,0,1.7,0.8,1.7,1.7
	c0,1-0.8,1.7-1.7,1.7h-5.4c-1,0-1.7-0.8-1.7-1.7V29.9c0-1,0.8-1.7,1.7-1.7h5.4c0.9,0,1.7,0.8,1.7,1.7c0,0.9-0.8,1.7-1.7,1.7h-3.7
	v3.1H37.6z M19.2,34.7v7.8c0,0.9-0.8,1.7-1.7,1.7s-1.7-0.8-1.7-1.7V30c0-0.9,0.8-1.7,1.7-1.7c0.6,0,1.2,0.3,1.5,0.9l6,8.7V30
	c0-0.9,0.8-1.7,1.7-1.7c1,0,1.7,0.7,1.7,1.7v12.6c0,0.9-0.8,1.7-1.7,1.7c-0.5,0-1-0.3-1.4-0.7c0,0,0,0,0-0.1L19.2,34.7z M60.8,49.5
	c0,1.1-0.9,2-2,2H14.3c-1.1,0-2-0.9-2-2v-0.2c0-1.1,0.9-2,2-2h44.5c1.1,0,2,0.9,2,2V49.5z"/>
</svg>
