<?xml version="1.0" encoding="utf-8"?>
<!-- Generator: Adobe Illustrator 21.0.2, SVG Export Plug-In . SVG Version: 6.00 Build 0)  -->
<svg version="1.1" id="Слой_1" xmlns="http://www.w3.org/2000/svg" xmlns:xlink="http://www.w3.org/1999/xlink" x="0px" y="0px"
	 viewBox="0 0 77.3 77.3" style="enable-background:new 0 0 77.3 77.3;" xml:space="preserve">
<style type="text/css">
	.st0{fill:#333333;}
</style>
<g>
	<path class="st0" d="M38.6,0C17.3,0,0,17.3,0,38.6s17.3,38.6,38.6,38.6c21.3,0,38.6-17.3,38.6-38.6C77.3,17.3,59.9,0,38.6,0z
		 M38.6,72.5C20,72.5,4.8,57.3,4.8,38.6C4.8,20,20,4.8,38.6,4.8c18.7,0,33.9,15.2,33.9,33.9C72.5,57.3,57.3,72.5,38.6,72.5z"/>
	<path class="st0" d="M38.6,12.1C24,12.1,12.1,24,12.1,38.6S24,65.1,38.6,65.1c14.6,0,26.5-11.9,26.5-26.5
		C65.2,24,53.3,12.1,38.6,12.1z M57,27.1c1.3,2,2.3,4.3,2.8,6.8L55.1,35c-0.4-1.9-1.2-3.7-2.2-5.3L57,27.1z M43.5,17.4
		c2.4,0.6,4.7,1.5,6.8,2.8l-2.6,4.1c-1.6-1-3.4-1.8-5.3-2.2L43.5,17.4z M33.8,17.4l1.1,4.7c-1.9,0.4-3.7,1.2-5.3,2.2L27,20.2
		C29.1,19,31.4,18,33.8,17.4z M20.3,50.2c-1.3-2-2.3-4.3-2.8-6.8l4.7-1.1c0.4,1.9,1.2,3.7,2.2,5.3L20.3,50.2z M22.2,34.9l-4.7-1.1
		c0.6-2.4,1.5-4.7,2.8-6.8l4.1,2.6C23.3,31.2,22.6,33,22.2,34.9z M33.8,59.8c-2.4-0.5-4.7-1.5-6.8-2.8l2.6-4.1
		c1.6,1,3.4,1.7,5.3,2.2L33.8,59.8z M43.5,59.8l-1.1-4.7c1.9-0.4,3.7-1.2,5.3-2.2l2.6,4.1C48.2,58.3,45.9,59.3,43.5,59.8z
		 M38.6,51.8c-7.2,0-13.1-5.9-13.1-13.1c0-7.2,5.9-13.1,13.1-13.1c7.2,0,13.1,5.9,13.1,13.1C51.8,45.9,45.9,51.8,38.6,51.8z
		 M57,50.2l-4.1-2.6c1-1.6,1.8-3.4,2.2-5.3l4.7,1.1C59.3,45.9,58.3,48.2,57,50.2z"/>
	<path class="st0" d="M45.2,38c-1.2-0.3-3.1-0.5-5.4-0.6c-0.1-2.5-0.4-4.5-0.8-5.3c1.2-0.2,2.1-1.2,2.1-2.4c0-1.4-1.1-2.5-2.5-2.5
		c-1.4,0-2.5,1.1-2.5,2.5c0,1.2,0.9,2.2,2.1,2.4c-0.4,0.8-0.7,2.8-0.8,5.3c-2.5,0.1-4.5,0.4-5.3,0.8c-0.2-1.2-1.2-2.1-2.4-2.1
		c-1.4,0-2.5,1.1-2.5,2.5c0,1.4,1.1,2.5,2.5,2.5c1.2,0,2.2-0.9,2.4-2.1c0.8,0.4,2.8,0.7,5.3,0.8c0,2.2,0.3,4.2,0.6,5.4
		c-1,0.3-1.8,1.2-1.8,2.4c0,1.4,1.1,2.5,2.5,2.5c1.4,0,2.5-1.1,2.5-2.5c0-1.1-0.8-2.1-1.8-2.4c0.3-1.2,0.5-3.1,0.6-5.3
		c2.2,0,4.2-0.3,5.3-0.6c0.3,1,1.2,1.8,2.4,1.8c1.4,0,2.5-1.1,2.5-2.5c0-1.4-1.1-2.5-2.5-2.5C46.4,36.2,45.5,36.9,45.2,38z"/>
</g>
</svg>
