<?xml version="1.0" encoding="utf-8"?>
<!-- Generator: Adobe Illustrator 21.0.2, SVG Export Plug-In . SVG Version: 6.00 Build 0)  -->
<svg version="1.1" id="Слой_1" xmlns="http://www.w3.org/2000/svg" xmlns:xlink="http://www.w3.org/1999/xlink" x="0px" y="0px"
	 viewBox="0 0 115 114" style="enable-background:new 0 0 115 114;" xml:space="preserve">
<style type="text/css">
	.st0{fill:#333333;}
</style>
<path class="st0" d="M85.7,71.4c-3-2.9-4-4.9-2-9.1C96.4,35.5,79.5,5.1,50.2,1c-1.1-0.2-2.1-0.7-3.2-1c-2,0-4,0-6,0
	c-2.5,0.6-5.1,1.3-7.6,1.9C15.7,6.4,3.4,20.2,1,38.2c-0.1,0.9-0.6,1.8-1,2.8c0,2,0,4,0,6c0.9,3.5,1.5,7.1,2.7,10.5
	c8.4,25.7,36.2,36.1,59.5,26c3.9-1.7,6.1-1.4,9,1.6c8,8.2,16.4,16.1,24.7,24c1.9,1.8,4.1,3.2,6.1,4.9c1.3,0,2.7,0,4,0
	c4.3-1.7,7.3-4.7,9-9c0-1.3,0-2.7,0-4C105.3,91.1,95.7,81.1,85.7,71.4z M44.2,70.9c-14.4-0.1-26.9-12.6-26.9-26.7
	c0.1-14.8,12.4-27.2,26.9-27.1C59.1,17.2,71.1,29.4,71,44.2C71,58.5,58.4,71,44.2,70.9z"/>
</svg>
