<?xml version="1.0" encoding="utf-8"?>
<!-- Generator: Adobe Illustrator 21.0.2, SVG Export Plug-In . SVG Version: 6.00 Build 0)  -->
<svg version="1.1" id="Слой_1" xmlns="http://www.w3.org/2000/svg" xmlns:xlink="http://www.w3.org/1999/xlink" x="0px" y="0px"
	 viewBox="0 0 80.2 54.8" style="enable-background:new 0 0 80.2 54.8;" xml:space="preserve">
<style type="text/css">
	.st0{fill:#333333;}
</style>
<g>
	<polygon class="st0" points="9.1,29.3 13.9,26.8 18.7,29.3 17.7,24 21.6,20.2 16.3,19.4 13.9,14.6 11.5,19.4 6.1,20.2 10,24 	"/>
	<polygon class="st0" points="29.8,29.3 34.6,26.8 39.4,29.3 38.4,24 42.3,20.2 37,19.4 34.6,14.6 32.2,19.4 26.9,20.2 30.7,24 	"/>
	<polygon class="st0" points="50.5,29.3 55.3,26.8 60.1,29.3 59.2,24 63,20.2 57.7,19.4 55.3,14.6 52.9,19.4 47.6,20.2 51.4,24 	"/>
	<path class="st0" d="M4.3,49.5C1.9,49.5,0,49.7,0,50v4.2c0,0.3,1.9,0.5,4.3,0.5h60.6c2.4,0,4.3-0.2,4.3-0.5V50
		c0-0.2-1.9-0.5-4.3-0.5H4.3z"/>
	<path class="st0" d="M75.9,8.2c-2.4,0-4.4,2-4.4,4.4c0,1.7,1,3.2,2.4,3.9v15.2h-4.8V9.5c0-2.4-1.9-4.3-4.3-4.3h-7.1V0.6
		c0-0.4-1.3-0.6-2.9-0.6H14.2c-1.6,0-2.9,0.3-2.9,0.6v4.6h-7C1.9,5.3,0,7.2,0,9.5v34.2C0,46.1,1.9,48,4.3,48h60.6
		c2.4,0,4.3-1.9,4.3-4.3v-5.5h8.6v-3.3v-3.3V16.4c1.4-0.7,2.4-2.2,2.4-3.9C80.2,10.1,78.3,8.2,75.9,8.2z M22.8,36.9H5V10.2h17.8
		V36.9z M43.5,36.9H25.7V10.3h17.8V36.9z M64.2,36.9H46.4V10.2h17.8V36.9z"/>
</g>
</svg>
