<svg id="Слой_1" xmlns="http://www.w3.org/2000/svg" viewBox="0 0 18 14"><style>.st0{opacity:.7;fill:#747e85;enable-background:new}</style><path class="st0" d="M18 1.7c-.7.3-1.4.5-2.1.6.8-.4 1.3-1.1 1.6-1.9-.7.3-1.5.6-2.3.7C14.4.4 13.5 0 12.5 0c-2 0-3.6 1.5-3.7 3.5 0 .3 0 .5.1.8-3-.1-5.7-1.4-7.6-3.6-1 1.6-.5 3.7 1.1 4.7-.6 0-1.2-.2-1.7-.4 0 1.7 1.3 3.2 3 3.5-.3 0-.7.1-1 .1-.2 0-.5 0-.7-.1C2.5 10 3.9 11 5.4 11c-1.3 1-2.9 1.5-4.6 1.5-.3 0-.6 0-.9-.1 1.7 1 3.7 1.6 5.7 1.6 5.6.2 10.3-4.3 10.5-9.9v-.2-.5c.8-.4 1.4-1 1.9-1.7z"/></svg>