<svg id="Слой_1" xmlns="http://www.w3.org/2000/svg" viewBox="0 0 21 11"><style>.st0{opacity:.7;fill:#747e85;enable-background:new}</style><path class="st0" d="M10.8 0c.4 0 .9.1 1.3.4.1.1.1.2.2.3.1.8.1 1.6 0 2.4-.1.6 0 1.3.1 1.9.1.3.3.4.6.4.4-.3.8-.7 1.1-1.1.7-1 1.4-2.1 1.8-3.2.1-.2.2-.4.4-.5h4.1l.2.1c.3-.1.4.1.4.3-.2.8-.7 1.6-1.3 2.3-.1.1-.5.6-.9 1.1l-1.2 1.5c-.2.3-.1.7.1.9l.8.8c.7.6 1.4 1.3 2 2 .2.3.4.6.3.9-.1.2-.2.3-.3.4-.6.1-1.3.1-2.1.1h-1.6l-.3-.1c-.8-.3-1.6-.9-2.1-1.6-.3-.4-.7-.7-1.3-.9-.4.1-.6.4-.7.7-.1.3-.2.6-.2.9 0 .6-.1.7-.5.8-.7.1-1.5.1-2.2 0-.9-.1-1.7-.4-2.5-.8-1-.4-1.9-1.1-2.6-2C3.1 6.5 2 4.9 1 3.1.6 2.3.1 1.3 0 1-.1.8 0 .6.2.5h.1C.4.5.9.5 2.1.4h1.6l.2.1c.3.1.6.4.6.7.2.4 1.2 2.1 1.5 2.6.2.5.5.8.9 1.2.2.2.4.4.7.4.2 0 .4-.2.4-.4.3-1.1.4-2.3.1-3.5-.2-.4-.6-.7-1.1-.7-.1 0-.1-.1 0-.2C7.4.2 8 0 8.6 0h2.2z"/></svg>